<svg xmlns="http://www.w3.org/2000/svg" viewBox="0 0 32.61 66.51"><defs><style>.cls-1{fill:#87bc2a;}.cls-2{fill:#f9f9f9;}.cls-3{fill:#d7d8d6;}.cls-4{fill:#fff;}</style></defs><title>clap</title><g id="Layer_2" data-name="Layer 2"><g id="Layer_1-2" data-name="Layer 1"><rect class="cls-1" x="0.83" y="35.09" width="31.79" height="31.43" rx="3.56" ry="3.56"/><path class="cls-2" d="M7.94,51.66c-.29-.25-.6-.47-.87-.74a1.47,1.47,0,0,1,.14-2.34c.26-.2.2-.29,0-.5A1.54,1.54,0,0,1,7.48,46a1.52,1.52,0,0,1,2.08-.06l.8.6a1.69,1.69,0,0,1,1.35-1.32c.25,0,.21-.26.24-.43a1.6,1.6,0,0,1,1.11-1.3,1.47,1.47,0,0,1,1.64.44c.22.23.41.49.62.76a7.52,7.52,0,0,1,.55-.73,1.5,1.5,0,0,1,2.24.11c.9.88,1.78,1.79,2.67,2.67.13.13.23.33.5.37a1.45,1.45,0,0,1,.87-1.56,1.48,1.48,0,0,1,2.15.85c.86,2.32,1.73,4.64,2.56,7a3.73,3.73,0,0,1-.78,3.91,27.37,27.37,0,0,1-2,2,3.78,3.78,0,0,1-3,1,1,1,0,0,0-.77.22,3.87,3.87,0,0,1-4.74,0q-3.86-2.9-7.69-5.84C6.67,53.69,6.71,52.56,7.94,51.66Zm13.62,7.91a4.35,4.35,0,0,0,.58-.07,8.14,8.14,0,0,0,4.12-4,3,3,0,0,0-.06-1.83c-.85-2.33-1.72-4.65-2.56-7a.77.77,0,0,0-1-.54c-.49.12-.67.49-.54,1,.07.29.17.57.25.86s.29.6-.07.81-.5-.14-.69-.33l-3.74-3.73a3,3,0,0,0-.5-.43.71.71,0,0,0-.93.1.73.73,0,0,0-.14.93,2.37,2.37,0,0,0,.42.5l3.47,3.49c.19.19.41.4.17.66s-.47,0-.65-.15l-.93-.93-4.5-4.5a.83.83,0,0,0-1.31,0A.87.87,0,0,0,13,45.67l.29.3,5.13,5.14c.2.21.52.43.19.74s-.5,0-.69-.23L13.55,47.3c-.54-.54-1-.64-1.4-.28s-.27.87.25,1.41l1.1,1.11,3.27,3.27c.19.19.41.42.19.66s-.5.05-.7-.16l-2.55-2.55c-.11-.11-.22-.23-.34-.34a.94.94,0,0,0-1.25-.07.89.89,0,0,0,0,1.2,1.5,1.5,0,0,0,.2.22l6.83,6.84A3.19,3.19,0,0,0,21.56,59.57ZM19.77,60a6.81,6.81,0,0,1-1.5-1.19l-6.39-6.43a1.44,1.44,0,0,1-.41-.51c-.21-.72-.81-1.06-1.34-1.47L9,49.49c-.68-.51-1.21-.56-1.53-.13s-.15.89.56,1.43l4.72,3.6c.23.18.67.36.36.74s-.58,0-.81-.18c-1-.75-2-1.53-3-2.28-.57-.42-1.08-.41-1.39,0A.93.93,0,0,0,8.21,54c2.64,2,5.28,4,7.94,6A3.07,3.07,0,0,0,19.77,60Zm-7.5-10.53a11.14,11.14,0,0,0-3-2.84c-.55-.4-1-.38-1.36.06s-.27.9.28,1.32c.79.61,1.6,1.19,2.37,1.82.42.34.78.66,1.19,0C11.81,49.61,12.07,49.54,12.26,49.43Zm.08-3.37a.78.78,0,0,0-1,.12.72.72,0,0,0-.07.91A1.82,1.82,0,0,1,12.34,46.06Z"/><path class="cls-2" d="M9.75,43.14c0,.14-.05.26-.18.32a.36.36,0,0,1-.44-.06L6.67,41a.32.32,0,0,1,0-.48.31.31,0,0,1,.48,0L9.62,42.9A.85.85,0,0,1,9.75,43.14Z"/><path class="cls-2" d="M8.19,44.73,6,44.1a.34.34,0,0,1-.28-.45c.07-.24.26-.28.48-.22L8.31,44c.22.06.36.19.31.43S8.37,44.73,8.19,44.73Z"/><path class="cls-2" d="M11.13,41.67q0,.18,0,.36a.33.33,0,0,1-.3.38.34.34,0,0,1-.41-.34c-.06-.71-.11-1.42-.16-2.14,0-.22,0-.41.29-.44s.4.16.42.4c.05.59.09,1.19.14,1.78Z"/><rect class="cls-3" width="31.79" height="31.43" rx="3.56" ry="3.56"/><path class="cls-4" d="M7.11,16.57c-.29-.25-.6-.47-.87-.74a1.47,1.47,0,0,1,.14-2.34c.26-.2.2-.29,0-.5a1.54,1.54,0,0,1,.21-2.11,1.52,1.52,0,0,1,2.08-.06l.8.6a1.69,1.69,0,0,1,1.35-1.32c.25,0,.21-.26.24-.43a1.6,1.6,0,0,1,1.11-1.3,1.47,1.47,0,0,1,1.64.44c.22.23.41.49.62.76A7.52,7.52,0,0,1,15,8.85,1.5,1.5,0,0,1,17.28,9c.9.88,1.78,1.79,2.67,2.67.13.13.23.33.5.37a1.45,1.45,0,0,1,.87-1.56,1.48,1.48,0,0,1,2.15.85c.86,2.32,1.73,4.64,2.56,7a3.73,3.73,0,0,1-.78,3.91,27.37,27.37,0,0,1-2,2,3.78,3.78,0,0,1-3,1,1,1,0,0,0-.77.22,3.87,3.87,0,0,1-4.74,0Q10.85,22.46,7,19.51C5.84,18.6,5.88,17.47,7.11,16.57Zm13.62,7.91a4.35,4.35,0,0,0,.58-.07,8.14,8.14,0,0,0,4.12-4,3,3,0,0,0-.06-1.83c-.85-2.33-1.72-4.65-2.56-7a.77.77,0,0,0-1-.54c-.49.12-.67.49-.54,1,.07.29.17.57.25.86s.29.6-.07.81-.5-.14-.69-.33L17,9.68a3,3,0,0,0-.5-.43.71.71,0,0,0-.93.1.73.73,0,0,0-.14.93,2.37,2.37,0,0,0,.42.5l3.47,3.49c.19.19.41.4.17.66s-.47,0-.65-.15l-.93-.93-4.5-4.5a.83.83,0,0,0-1.31,0,.87.87,0,0,0,.06,1.28l.29.3L17.56,16c.2.21.52.43.19.74s-.5,0-.69-.23l-4.33-4.33c-.54-.54-1-.64-1.4-.28s-.27.87.25,1.41l1.1,1.11,3.27,3.27c.19.19.41.42.19.66s-.5.05-.7-.16l-2.55-2.55c-.11-.11-.22-.23-.34-.34a.94.94,0,0,0-1.25-.07.89.89,0,0,0,0,1.2,1.5,1.5,0,0,0,.2.22l6.83,6.84A3.19,3.19,0,0,0,20.73,24.48Zm-1.79.39a6.81,6.81,0,0,1-1.5-1.19L11,17.25a1.44,1.44,0,0,1-.41-.51c-.21-.72-.81-1.06-1.34-1.47L8.15,14.4c-.68-.51-1.21-.56-1.53-.13s-.15.89.56,1.43l4.72,3.6c.23.18.67.36.36.74s-.58,0-.81-.18c-1-.75-2-1.53-3-2.28-.57-.42-1.08-.41-1.39,0a.93.93,0,0,0,.33,1.31c2.64,2,5.28,4,7.94,6A3.07,3.07,0,0,0,18.94,24.86Zm-7.5-10.53a11.14,11.14,0,0,0-3-2.84c-.55-.4-1-.38-1.36.06s-.27.9.28,1.32c.79.61,1.6,1.19,2.37,1.82.42.34.78.66,1.19,0C11,14.52,11.25,14.45,11.44,14.34ZM11.52,11a.78.78,0,0,0-1,.12.72.72,0,0,0-.07.91A1.82,1.82,0,0,1,11.52,11Z"/><path class="cls-4" d="M8.92,8.05c0,.14-.05.26-.18.32a.36.36,0,0,1-.44-.06L5.84,5.87a.32.32,0,0,1,0-.48.31.31,0,0,1,.48,0L8.8,7.81A.85.85,0,0,1,8.92,8.05Z"/><path class="cls-4" d="M7.37,9.64,5.14,9a.34.34,0,0,1-.28-.45c.07-.24.26-.28.48-.22l2.14.59c.22.06.36.19.31.43S7.55,9.64,7.37,9.64Z"/><path class="cls-4" d="M10.31,6.58q0,.18,0,.36a.33.33,0,0,1-.3.38A.34.34,0,0,1,9.6,7c-.06-.71-.11-1.42-.16-2.14,0-.22,0-.41.29-.44s.4.16.42.4c.05.59.09,1.19.14,1.78Z"/></g></g></svg>